<svg width="28" height="28" viewBox="0 0 28 28" fill="var(--logo-color)" xmlns="http://www.w3.org/2000/svg">
<path d="M14.1934 0C6.46055 0 0.193359 6.26719 0.193359 14C0.193359 21.7328 6.46055 28 14.1934 28C21.9262 28 28.1934 21.7328 28.1934 14C28.1934 6.26719 21.9262 0 14.1934 0ZM10.2777 19.857H7.54883V11.1234H10.2777V19.857ZM8.83945 10.0297H8.81758C7.82773 10.0297 7.18789 9.3625 7.18789 8.51484C7.18789 7.65078 7.84961 7 8.85586 7C9.86211 7 10.4801 7.65078 10.502 8.51484C10.5074 9.35703 9.86758 10.0297 8.83945 10.0297ZM21.1934 19.857H18.098V15.3398C18.098 14.1586 17.6168 13.3492 16.5504 13.3492C15.7355 13.3492 15.2816 13.8961 15.0738 14.4211C14.9973 14.607 15.0082 14.8695 15.0082 15.1375V19.857H11.9402C11.9402 19.857 11.9785 11.8508 11.9402 11.1234H15.0082V12.4961C15.1887 11.8945 16.1676 11.0414 17.7316 11.0414C19.673 11.0414 21.1934 12.2992 21.1934 15.0008V19.857Z" fill="var(--logo-color)"/>
</svg>
