<svg width="28" height="28" viewBox="0 0 28 28" fill="var(--logo-color)" xmlns="http://www.w3.org/2000/svg">
<path fill-rule="evenodd" clip-rule="evenodd" d="M28 14C28 21.7319 21.7319 28 14 28C6.26801 28 0 21.7319 0 14C0 6.26801 6.26801 0 14 0C21.7319 0 28 6.26801 28 14ZM7.007 9.8C7.007 9.03 7.63 8.4 8.4 8.4H19.6C20.37 8.4 21 9.03 21 9.8V18.2C21 18.97 20.37 19.6 19.6 19.6H8.4C7.63 19.6 7 18.97 7 18.2L7.007 9.8ZM14 14.7L8.40001 11.2V18.2H19.6V11.2L14 14.7ZM14 13.3L8.40001 9.80001H19.6L14 13.3Z" fill=""/>
</svg>
